<svg width="197" height="59" viewBox="0 0 197 59" fill="none" xmlns="http://www.w3.org/2000/svg">
<path d="M23.36 15.728C25.7067 15.984 27.584 16.4 28.992 16.976C30.4213 17.552 31.456 18.3093 32.096 19.248C32.736 20.1867 33.056 21.36 33.056 22.768C33.056 24.304 32.5547 25.648 31.552 26.8C30.5707 27.9307 29.2053 28.8053 27.456 29.424C25.7067 30.0213 23.712 30.32 21.472 30.32C18.976 30.32 16.864 30.0107 15.136 29.392C13.408 28.7733 12.1173 27.952 11.264 26.928C10.4107 25.8827 9.984 24.7413 9.984 23.504C9.984 23.2907 10.048 23.12 10.176 22.992C10.3253 22.864 10.5067 22.8 10.72 22.8H17.28C17.728 22.8 18.0907 22.9387 18.368 23.216C18.7307 23.5573 19.136 23.792 19.584 23.92C20.032 24.0267 20.6613 24.08 21.472 24.08C23.4987 24.08 24.512 23.7707 24.512 23.152C24.512 22.896 24.3733 22.6827 24.096 22.512C23.84 22.32 23.3707 22.16 22.688 22.032C22.0267 21.8827 21.0453 21.7333 19.744 21.584C16.8213 21.2427 14.5813 20.5173 13.024 19.408C11.4667 18.2773 10.688 16.688 10.688 14.64C10.688 13.1893 11.1253 11.9093 12 10.8C12.8747 9.69067 14.112 8.82667 15.712 8.208C17.3333 7.58933 19.2107 7.28 21.344 7.28C23.5627 7.28 25.504 7.632 27.168 8.336C28.832 9.01867 30.1013 9.872 30.976 10.896C31.8507 11.92 32.288 12.9227 32.288 13.904C32.288 14.1173 32.2133 14.288 32.064 14.416C31.936 14.544 31.7547 14.608 31.52 14.608H24.64C24.2773 14.608 23.9467 14.48 23.648 14.224C23.4133 14.0107 23.136 13.84 22.816 13.712C22.496 13.584 22.0053 13.52 21.344 13.52C19.9147 13.52 19.2 13.8187 19.2 14.416C19.2 14.736 19.4773 14.992 20.032 15.184C20.5867 15.3547 21.696 15.536 23.36 15.728ZM55.5715 7.6C57.5768 7.6 59.3262 7.94133 60.8195 8.624C62.3128 9.30667 63.4542 10.2347 64.2435 11.408C65.0328 12.5813 65.4275 13.8933 65.4275 15.344C65.4275 17.7333 64.6808 19.6107 63.1875 20.976C61.6942 22.32 59.1555 22.992 55.5715 22.992H51.3475V29.136C51.3475 29.3707 51.2622 29.5733 51.0915 29.744C50.9208 29.9147 50.7182 30 50.4835 30H43.6035C43.3688 30 43.1662 29.9147 42.9955 29.744C42.8248 29.5733 42.7395 29.3707 42.7395 29.136V8.464C42.7395 8.22933 42.8248 8.02667 42.9955 7.856C43.1662 7.68533 43.3688 7.6 43.6035 7.6H55.5715ZM55.4435 17.072C55.9555 17.072 56.3608 16.9227 56.6595 16.624C56.9582 16.304 57.1075 15.888 57.1075 15.376C57.1075 14.8427 56.9582 14.4053 56.6595 14.064C56.3608 13.7227 55.9555 13.552 55.4435 13.552H51.3795V17.072H55.4435ZM78.407 28.912C78.1297 29.6373 77.6497 30 76.967 30H70.919C70.727 30 70.5563 29.936 70.407 29.808C70.279 29.6587 70.215 29.488 70.215 29.296L70.247 29.104L77.223 8.656C77.3083 8.37867 77.4683 8.13333 77.703 7.92C77.9377 7.70667 78.2577 7.6 78.663 7.6H87.559C87.9643 7.6 88.2843 7.70667 88.519 7.92C88.7537 8.13333 88.9137 8.37867 88.999 8.656L95.975 29.104L96.007 29.296C96.007 29.488 95.9323 29.6587 95.783 29.808C95.655 29.936 95.495 30 95.303 30H89.255C88.5723 30 88.0923 29.6373 87.815 28.912L87.015 26.672H79.207L78.407 28.912ZM83.111 13.776L80.839 20.432H85.383L83.111 13.776ZM126.426 29.008C126.469 29.0933 126.49 29.1893 126.49 29.296C126.49 29.488 126.416 29.6587 126.266 29.808C126.138 29.936 125.978 30 125.786 30H118.522C118.224 30 117.946 29.9253 117.69 29.776C117.456 29.6267 117.285 29.4347 117.178 29.2L114.362 22.864H111.674V29.136C111.674 29.3707 111.589 29.5733 111.418 29.744C111.248 29.9147 111.045 30 110.81 30H103.898C103.664 30 103.461 29.9147 103.29 29.744C103.12 29.5733 103.034 29.3707 103.034 29.136V8.464C103.034 8.22933 103.12 8.02667 103.29 7.856C103.461 7.68533 103.664 7.6 103.898 7.6H116.346C118.266 7.6 119.941 7.90933 121.37 8.528C122.821 9.14667 123.93 10.0427 124.698 11.216C125.466 12.3893 125.85 13.7653 125.85 15.344C125.85 18.2453 124.73 20.3467 122.49 21.648L126.426 29.008ZM115.674 16.944C116.144 16.944 116.506 16.7947 116.762 16.496C117.018 16.176 117.146 15.7813 117.146 15.312C117.146 14.8427 117.018 14.4373 116.762 14.096C116.528 13.7333 116.165 13.552 115.674 13.552H111.674V16.944H115.674ZM146.19 15.728C148.537 15.984 150.414 16.4 151.822 16.976C153.251 17.552 154.286 18.3093 154.926 19.248C155.566 20.1867 155.886 21.36 155.886 22.768C155.886 24.304 155.385 25.648 154.382 26.8C153.401 27.9307 152.035 28.8053 150.286 29.424C148.537 30.0213 146.542 30.32 144.302 30.32C141.806 30.32 139.694 30.0107 137.966 29.392C136.238 28.7733 134.947 27.952 134.094 26.928C133.241 25.8827 132.814 24.7413 132.814 23.504C132.814 23.2907 132.878 23.12 133.006 22.992C133.155 22.864 133.337 22.8 133.55 22.8H140.11C140.558 22.8 140.921 22.9387 141.198 23.216C141.561 23.5573 141.966 23.792 142.414 23.92C142.862 24.0267 143.491 24.08 144.302 24.08C146.329 24.08 147.342 23.7707 147.342 23.152C147.342 22.896 147.203 22.6827 146.926 22.512C146.67 22.32 146.201 22.16 145.518 22.032C144.857 21.8827 143.875 21.7333 142.574 21.584C139.651 21.2427 137.411 20.5173 135.854 19.408C134.297 18.2773 133.518 16.688 133.518 14.64C133.518 13.1893 133.955 11.9093 134.83 10.8C135.705 9.69067 136.942 8.82667 138.542 8.208C140.163 7.58933 142.041 7.28 144.174 7.28C146.393 7.28 148.334 7.632 149.998 8.336C151.662 9.01867 152.931 9.872 153.806 10.896C154.681 11.92 155.118 12.9227 155.118 13.904C155.118 14.1173 155.043 14.288 154.894 14.416C154.766 14.544 154.585 14.608 154.35 14.608H147.47C147.107 14.608 146.777 14.48 146.478 14.224C146.243 14.0107 145.966 13.84 145.646 13.712C145.326 13.584 144.835 13.52 144.174 13.52C142.745 13.52 142.03 13.8187 142.03 14.416C142.03 14.736 142.307 14.992 142.862 15.184C143.417 15.3547 144.526 15.536 146.19 15.728ZM185.794 7.6C186.028 7.6 186.231 7.68533 186.402 7.856C186.572 8.02667 186.658 8.22933 186.658 8.464V29.136C186.658 29.3707 186.572 29.5733 186.402 29.744C186.231 29.9147 186.028 30 185.794 30H179.202C178.967 30 178.764 29.9147 178.594 29.744C178.423 29.5733 178.338 29.3707 178.338 29.136V22.32H171.938V29.136C171.938 29.3707 171.852 29.5733 171.682 29.744C171.511 29.9147 171.308 30 171.074 30H164.482C164.247 30 164.044 29.9253 163.874 29.776C163.703 29.6053 163.618 29.392 163.618 29.136V8.464C163.618 8.22933 163.703 8.02667 163.874 7.856C164.044 7.68533 164.247 7.6 164.482 7.6H171.074C171.308 7.6 171.511 7.68533 171.682 7.856C171.852 8.02667 171.938 8.22933 171.938 8.464V15.024H178.338V8.464C178.338 8.22933 178.423 8.02667 178.594 7.856C178.764 7.68533 178.967 7.6 179.202 7.6H185.794Z" fill="#8d9db6"/>
<rect x="4.5" y="0.5" width="189" height="37" stroke="#F3F3F5"/>
<g filter="url(#filter0_d_0_1)">
<path d="M10.1562 41.1562V51H9.1875V41.1562H4.30469V40.2656H15.0391V41.1562H10.1562ZM36.205 46.4062V51H35.2284V40.2656H40.5722C41.3899 40.2656 42.0904 40.3307 42.6737 40.4609C43.2571 40.5859 43.7336 40.7786 44.1034 41.0391C44.4784 41.2943 44.7519 41.6146 44.9237 42C45.0956 42.3854 45.1816 42.8359 45.1816 43.3516C45.1816 44.1536 44.9706 44.7969 44.5487 45.2812C44.1269 45.7604 43.4472 46.0885 42.5097 46.2656L46.1737 51H44.9472L41.4862 46.375C41.3404 46.3854 41.192 46.3932 41.0409 46.3984C40.8899 46.4036 40.7336 46.4062 40.5722 46.4062H36.205ZM44.1737 43.3516C44.1737 42.8932 44.093 42.5234 43.9316 42.2422C43.7701 41.9557 43.5071 41.7344 43.1425 41.5781C42.7779 41.4219 42.2987 41.3177 41.705 41.2656C41.1165 41.2083 40.3925 41.1797 39.5331 41.1797H36.205V45.4922H39.5019C40.3612 45.4922 41.0878 45.4688 41.6816 45.4219C42.2753 45.3698 42.7571 45.2682 43.1269 45.1172C43.4967 44.9609 43.7623 44.7448 43.9237 44.4688C44.0904 44.1875 44.1737 43.8151 44.1737 43.3516ZM66.6366 51V40.2656H67.6131V51H66.6366ZM94.7556 51H93.2947L87.9353 40.2656H89.0291L94.0525 50.3281L99.0759 40.2656H100.162L94.7556 51ZM120.484 51V40.2656H129.429V41.1797H121.547V44.875H129.031V45.7812H121.547V50.0859H129.547V51H120.484ZM162.361 45.625C162.361 46.3125 162.288 46.9245 162.142 47.4609C162.002 47.9922 161.801 48.4557 161.541 48.8516C161.28 49.2474 160.962 49.5833 160.587 49.8594C160.218 50.1354 159.804 50.3568 159.345 50.5234C158.892 50.6901 158.397 50.8125 157.861 50.8906C157.33 50.9635 156.77 51 156.181 51H150.642V40.2656H156.166C157.046 40.2656 157.864 40.3516 158.619 40.5234C159.374 40.6953 160.028 40.9896 160.58 41.4062C161.137 41.8177 161.572 42.3672 161.884 43.0547C162.202 43.7422 162.361 44.599 162.361 45.625ZM161.353 45.625C161.353 45.0417 161.296 44.526 161.181 44.0781C161.067 43.6302 160.903 43.2422 160.689 42.9141C160.476 42.5807 160.215 42.3021 159.908 42.0781C159.601 41.8542 159.254 41.6745 158.869 41.5391C158.483 41.3984 158.064 41.2995 157.611 41.2422C157.158 41.1849 156.676 41.1562 156.166 41.1562H151.619V50.1016H156.166C156.931 50.1016 157.632 50.0339 158.267 49.8984C158.903 49.7578 159.447 49.5182 159.9 49.1797C160.358 48.8359 160.715 48.3776 160.97 47.8047C161.226 47.2266 161.353 46.5 161.353 45.625ZM187.589 46.4531V51H186.613V46.4531L181.574 40.2656H182.738L187.105 45.6406L191.457 40.2656H192.628L187.589 46.4531Z" fill="#F3F3F5"/>
</g>
<defs>
<filter id="filter0_d_0_1" x="0.304688" y="40.2656" width="196.324" height="18.7344" filterUnits="userSpaceOnUse" color-interpolation-filters="sRGB">
<feFlood flood-opacity="0" result="BackgroundImageFix"/>
<feColorMatrix in="SourceAlpha" type="matrix" values="0 0 0 0 0 0 0 0 0 0 0 0 0 0 0 0 0 0 127 0" result="hardAlpha"/>
<feOffset dy="4"/>
<feGaussianBlur stdDeviation="2"/>
<feComposite in2="hardAlpha" operator="out"/>
<feColorMatrix type="matrix" values="0 0 0 0 0 0 0 0 0 0 0 0 0 0 0 0 0 0 0.25 0"/>
<feBlend mode="normal" in2="BackgroundImageFix" result="effect1_dropShadow_0_1"/>
<feBlend mode="normal" in="SourceGraphic" in2="effect1_dropShadow_0_1" result="shape"/>
</filter>
</defs>
</svg>
