<svg width="297" height="30" viewBox="0 0 297 30" fill="none" xmlns="http://www.w3.org/2000/svg">
<path d="M24.75 19.5C24.75 20.5 24.5104 21.3125 24.0312 21.9375C23.5521 22.5417 22.875 23.0312 22 23.4062C21.2708 23.7188 20.3542 23.9688 19.25 24.1562C18.1458 24.3229 17 24.4479 15.8125 24.5312C14.625 24.5938 13.4583 24.6354 12.3125 24.6562C11.1667 24.6771 10.2083 24.6875 9.4375 24.6875C8.125 24.6875 6.82292 24.6667 5.53125 24.625C4.26042 24.5833 2.96875 24.5208 1.65625 24.4375C1.71875 22.3125 1.65625 20.2083 1.46875 18.125C3.03125 18.1667 4.58333 18.2083 6.125 18.25C7.6875 18.2708 9.25 18.3021 10.8125 18.3438C11.4167 18.3646 12.0208 18.3854 12.625 18.4062C13.25 18.4271 13.875 18.4375 14.5 18.4375C14.6042 18.4375 14.7604 18.4375 14.9688 18.4375C15.1771 18.4375 15.3958 18.4271 15.625 18.4062C15.8542 18.3854 16.0625 18.3542 16.25 18.3125C16.4583 18.2708 16.6146 18.2083 16.7188 18.125C16.8021 18.0417 16.8542 17.9271 16.875 17.7812C16.8958 17.6146 16.9062 17.4688 16.9062 17.3438C16.9062 17.1146 16.875 16.8438 16.8125 16.5312C16.75 16.1979 16.6562 15.9271 16.5312 15.7188C16.5104 15.6979 16.4375 15.6771 16.3125 15.6562C16.2083 15.6354 16.0833 15.625 15.9375 15.625C15.7917 15.6042 15.6562 15.5938 15.5312 15.5938C15.4062 15.5729 15.3333 15.5625 15.3125 15.5625C13.9792 15.4583 12.6458 15.3854 11.3125 15.3438C10 15.3021 8.67708 15.2292 7.34375 15.125C6.73958 15.0625 6.11458 15 5.46875 14.9375C4.84375 14.875 4.26042 14.7604 3.71875 14.5938C3.19792 14.4479 2.75 14.125 2.375 13.625C2.02083 13.1042 1.72917 12.5208 1.5 11.875C1.29167 11.2083 1.13542 10.5417 1.03125 9.875C0.947917 9.20833 0.90625 8.64583 0.90625 8.1875C0.90625 7.4375 0.979167 6.72917 1.125 6.0625C1.27083 5.375 1.5 4.73958 1.8125 4.15625C2.14583 3.57292 2.5625 3.0625 3.0625 2.625C3.5625 2.16667 4.17708 1.79167 4.90625 1.5C6.15625 1.02083 7.48958 0.6875 8.90625 0.5C10.3438 0.3125 11.7188 0.21875 13.0312 0.21875C14.5729 0.21875 16.0938 0.3125 17.5938 0.5C19.0938 0.6875 20.5938 0.927083 22.0938 1.21875C22.0729 1.82292 22.0521 2.42708 22.0312 3.03125C22.0312 3.61458 22.0312 4.20833 22.0312 4.8125C22.0312 5.41667 22.0625 6.03125 22.125 6.65625C22.1875 7.26042 22.25 7.86458 22.3125 8.46875C20.3333 8.51042 18.3542 8.55208 16.375 8.59375C14.4167 8.61458 12.4375 8.66667 10.4375 8.75C10.1875 8.75 9.84375 8.76042 9.40625 8.78125C8.98958 8.80208 8.58333 8.83333 8.1875 8.875C7.79167 8.89583 7.44792 8.91667 7.15625 8.9375C6.86458 8.95833 6.71875 8.96875 6.71875 8.96875C6.61458 9.19792 6.55208 9.4375 6.53125 9.6875C6.51042 9.91667 6.5 10.1562 6.5 10.4062C6.5 10.5312 6.5 10.6875 6.5 10.875C6.52083 11.0625 6.57292 11.2083 6.65625 11.3125C6.67708 11.3333 6.85417 11.3646 7.1875 11.4062C7.52083 11.4479 7.88542 11.4896 8.28125 11.5312C8.69792 11.5729 9.08333 11.6146 9.4375 11.6562C9.8125 11.6979 10.0417 11.7188 10.125 11.7188C10.8125 11.7812 11.6146 11.8542 12.5312 11.9375C13.4688 12.0208 14.4167 12.1146 15.375 12.2188C16.3542 12.3229 17.2917 12.4583 18.1875 12.625C19.0833 12.7708 19.8646 12.9479 20.5312 13.1562C21.1354 13.3646 21.6875 13.6979 22.1875 14.1562C22.7083 14.5938 23.1562 15.1146 23.5312 15.7188C23.9062 16.3021 24.1979 16.9271 24.4062 17.5938C24.6354 18.2396 24.75 18.875 24.75 19.5ZM49.4375 14.3438C49.4375 14.6354 49.4271 14.9583 49.4062 15.3125C49.4062 15.6458 49.375 15.9896 49.3125 16.3438C49.2708 16.6979 49.1979 17.0417 49.0938 17.375C49.0104 17.6875 48.8854 17.9688 48.7188 18.2188C48.3646 18.7396 48.0312 19.1875 47.7188 19.5625C47.4062 19.9167 47.0625 20.2188 46.6875 20.4688C46.3333 20.6979 45.9271 20.8854 45.4688 21.0312C45.0104 21.1771 44.4688 21.2917 43.8438 21.375C42.9062 21.5208 41.9792 21.6562 41.0625 21.7812C40.1458 21.8854 39.2188 21.9375 38.2812 21.9375C37.8646 21.9375 37.4375 21.9167 37 21.875C36.5625 21.8333 36.1562 21.6979 35.7812 21.4688C35.5729 21.3646 35.3438 21.2292 35.0938 21.0625C34.8646 20.875 34.6354 20.6875 34.4062 20.5C34.1771 20.2917 33.9479 20.0938 33.7188 19.9062C33.5104 19.6979 33.3229 19.5208 33.1562 19.375L32.9688 27.2188C32.3854 27.2604 31.8021 27.2708 31.2188 27.25C30.6354 27.25 30.0417 27.25 29.4375 27.25C29.0833 27.25 28.7396 27.25 28.4062 27.25C28.0938 27.2708 27.7604 27.2917 27.4062 27.3125C27.4896 25.5208 27.5625 23.7396 27.625 21.9688C27.7083 20.1771 27.75 18.3958 27.75 16.625V16.25C27.75 14.2708 27.6979 12.3021 27.5938 10.3438C27.4896 8.38542 27.3958 6.41667 27.3125 4.4375C28.3542 4.35417 29.3854 4.28125 30.4062 4.21875C31.4271 4.15625 32.4583 4.08333 33.5 4L33.7188 5.65625C35.1562 5.48958 36.5938 5.35417 38.0312 5.25C39.4896 5.125 40.9479 5.0625 42.4062 5.0625C42.5938 5.0625 42.7917 5.0625 43 5.0625C43.2292 5.04167 43.4375 5.05208 43.625 5.09375C44.125 5.19792 44.6354 5.33333 45.1562 5.5C45.6771 5.64583 46.1667 5.84375 46.625 6.09375C47.0833 6.34375 47.4896 6.66667 47.8438 7.0625C48.1979 7.4375 48.4688 7.89583 48.6562 8.4375C48.7812 8.85417 48.8958 9.3125 49 9.8125C49.1042 10.3125 49.1875 10.8333 49.25 11.375C49.3125 11.8958 49.3542 12.4167 49.375 12.9375C49.4167 13.4375 49.4375 13.9062 49.4375 14.3438ZM43.2812 13.7812C43.2812 13.5312 43.2604 13.2604 43.2188 12.9688C43.1771 12.6771 43.0729 12.4375 42.9062 12.25C42.4896 11.7708 41.9688 11.4062 41.3438 11.1562C40.7188 10.8854 40.1042 10.75 39.5 10.75C39 10.75 38.4583 10.8021 37.875 10.9062C37.2917 10.9896 36.7083 11.1146 36.125 11.2812C35.5417 11.4271 34.9688 11.6042 34.4062 11.8125C33.8438 12 33.3333 12.1875 32.875 12.375L33.1562 16.5625C33.9271 16.7917 34.75 17 35.625 17.1875C36.5208 17.375 37.3646 17.4688 38.1562 17.4688C38.3646 17.4688 38.6875 17.4792 39.125 17.5C39.5625 17.5 40.0104 17.4896 40.4688 17.4688C40.9479 17.4271 41.3854 17.375 41.7812 17.3125C42.1979 17.25 42.4688 17.1354 42.5938 16.9688C42.6979 16.8438 42.7917 16.6458 42.875 16.375C42.9583 16.0833 43.0312 15.7812 43.0938 15.4688C43.1562 15.1354 43.1979 14.8229 43.2188 14.5312C43.2604 14.2188 43.2812 13.9688 43.2812 13.7812ZM74.4688 10.9062C74.4688 12.6562 74.4062 14.3958 74.2812 16.125C74.1562 17.8542 74.0312 19.5833 73.9062 21.3125C71.5729 21.5208 69.25 21.6979 66.9375 21.8438C64.625 21.9896 62.3021 22.0625 59.9688 22.0625C59.7604 22.0625 59.375 22.0625 58.8125 22.0625C58.25 22.0417 57.6562 22.0208 57.0312 22C56.4062 21.9583 55.8125 21.9167 55.25 21.875C54.6875 21.8125 54.3125 21.7292 54.125 21.625C53.4375 21.25 52.9583 20.7812 52.6875 20.2188C52.4167 19.6354 52.2812 18.9792 52.2812 18.25C52.2812 18 52.2917 17.6667 52.3125 17.25C52.3333 16.8333 52.375 16.3958 52.4375 15.9375C52.5 15.4792 52.5833 15.0521 52.6875 14.6562C52.7917 14.2604 52.9167 13.9688 53.0625 13.7812C53.25 13.5312 53.6771 13.3229 54.3438 13.1562C55.0104 12.9688 55.8021 12.8229 56.7188 12.7188C57.6562 12.6146 58.6562 12.5312 59.7188 12.4688C60.8021 12.4062 61.8333 12.3646 62.8125 12.3438C63.7917 12.3021 64.6667 12.2812 65.4375 12.2812C66.2083 12.2812 66.7604 12.2812 67.0938 12.2812C67.1562 11.8229 67.1875 11.375 67.1875 10.9375C67.1875 10.8958 67.1875 10.7917 67.1875 10.625C67.1875 10.4375 67.1771 10.3229 67.1562 10.2812C67.0938 10.1562 66.8958 10.0521 66.5625 9.96875C66.2292 9.88542 65.8125 9.82292 65.3125 9.78125C64.8333 9.73958 64.3021 9.70833 63.7188 9.6875C63.1562 9.64583 62.6042 9.625 62.0625 9.625C61.5208 9.625 61.0417 9.625 60.625 9.625C60.2083 9.625 59.9062 9.625 59.7188 9.625C58.4062 9.625 57.0938 9.65625 55.7812 9.71875C54.4688 9.76042 53.1562 9.80208 51.8438 9.84375C51.9271 9.05208 51.9896 8.25 52.0312 7.4375C52.0938 6.625 52.1042 5.82292 52.0625 5.03125C53.5833 4.76042 55.1042 4.57292 56.625 4.46875C58.1667 4.34375 59.7188 4.28125 61.2812 4.28125C61.8438 4.28125 62.4583 4.29167 63.125 4.3125C63.7917 4.3125 64.4583 4.33333 65.125 4.375C65.7917 4.39583 66.4479 4.4375 67.0938 4.5C67.7604 4.5625 68.375 4.64583 68.9375 4.75C69.5208 4.85417 70.0938 5.04167 70.6562 5.3125C71.2396 5.58333 71.7812 5.91667 72.2812 6.3125C72.7812 6.70833 73.2188 7.16667 73.5938 7.6875C73.9688 8.1875 74.2396 8.72917 74.4062 9.3125C74.4271 9.375 74.4375 9.47917 74.4375 9.625C74.4583 9.77083 74.4688 9.9375 74.4688 10.125C74.4688 10.2917 74.4688 10.4479 74.4688 10.5938C74.4688 10.7396 74.4688 10.8438 74.4688 10.9062ZM67.5 18.25V14.25C66.8958 14.2292 66.2917 14.2188 65.6875 14.2188C65.0833 14.1979 64.4792 14.1875 63.875 14.1875C63.75 14.1875 63.3958 14.1979 62.8125 14.2188C62.25 14.2188 61.6354 14.2396 60.9688 14.2812C60.3229 14.3229 59.7292 14.375 59.1875 14.4375C58.6458 14.5 58.3333 14.5938 58.25 14.7188C58.1458 14.8854 58.0729 15.0625 58.0312 15.25C58.0104 15.4167 58 15.5938 58 15.7812C58 15.9271 58.0104 16.125 58.0312 16.375C58.0521 16.625 58.0833 16.8854 58.125 17.1562C58.1875 17.4271 58.25 17.6771 58.3125 17.9062C58.375 18.1354 58.4583 18.3021 58.5625 18.4062C58.6458 18.5104 58.7812 18.5938 58.9688 18.6562C59.1771 18.6979 59.3958 18.7396 59.625 18.7812C59.8542 18.8021 60.0833 18.8229 60.3125 18.8438C60.5417 18.8438 60.7188 18.8438 60.8438 18.8438C61.3438 18.8438 61.875 18.8229 62.4375 18.7812C63.0208 18.7396 63.6042 18.6979 64.1875 18.6562C64.7917 18.5938 65.375 18.5312 65.9375 18.4688C66.5 18.3854 67.0208 18.3125 67.5 18.25ZM95.9062 11.8125V12.5312L89.875 12.8125C89.9375 12.5417 89.9688 12.2292 89.9688 11.875C89.9688 11.3542 89.8958 11.0208 89.75 10.875C89.6042 10.7083 89.2812 10.625 88.7812 10.625C88.0729 10.625 87.2917 10.75 86.4375 11C85.5833 11.25 84.8333 11.4896 84.1875 11.7188C84.0833 12.6354 84 13.5521 83.9375 14.4688C83.875 15.3854 83.8438 16.3021 83.8438 17.2188C83.8438 18.2396 83.8438 19.2604 83.8438 20.2812C83.8646 21.2812 83.8854 22.2917 83.9062 23.3125L78.5312 23.6562C78.4271 22.3229 78.3229 21 78.2188 19.6875C78.1146 18.3542 78.0208 17.0208 77.9375 15.6875C77.8333 13.9167 77.6979 12.1562 77.5312 10.4062C77.3646 8.63542 77.1979 6.85417 77.0312 5.0625C78.2188 5.14583 79.3958 5.27083 80.5625 5.4375C81.75 5.58333 82.9375 5.77083 84.125 6L83.9688 8.625C84.5938 8.125 85.1875 7.69792 85.75 7.34375C86.3333 6.96875 86.9167 6.65625 87.5 6.40625C88.1042 6.15625 88.7396 5.97917 89.4062 5.875C90.0729 5.75 90.8125 5.6875 91.625 5.6875C92.1667 5.6875 92.7292 5.75 93.3125 5.875C93.8958 5.97917 94.3958 6.23958 94.8125 6.65625C95.0208 6.88542 95.1979 7.22917 95.3438 7.6875C95.4896 8.14583 95.6042 8.63542 95.6875 9.15625C95.7708 9.65625 95.8229 10.1562 95.8438 10.6562C95.8854 11.1354 95.9062 11.5208 95.9062 11.8125ZM115 3.3125L114.812 7.375C114.167 7.33333 113.521 7.30208 112.875 7.28125C112.229 7.26042 111.583 7.25 110.938 7.25C110.667 7.25 110.281 7.26042 109.781 7.28125C109.281 7.28125 108.719 7.29167 108.094 7.3125C107.49 7.33333 106.865 7.36458 106.219 7.40625C105.573 7.44792 104.979 7.48958 104.438 7.53125C103.896 7.57292 103.438 7.625 103.062 7.6875C102.688 7.75 102.458 7.8125 102.375 7.875C102.104 8.14583 101.969 8.45833 101.969 8.8125C101.969 9.04167 102.031 9.22917 102.156 9.375C102.198 9.4375 102.427 9.48958 102.844 9.53125C103.26 9.57292 103.771 9.61458 104.375 9.65625C104.979 9.67708 105.635 9.69792 106.344 9.71875C107.073 9.71875 107.76 9.72917 108.406 9.75C109.073 9.75 109.656 9.76042 110.156 9.78125C110.677 9.80208 111.042 9.82292 111.25 9.84375C112.042 9.94792 112.667 10.1771 113.125 10.5312C113.604 10.8854 113.969 11.3333 114.219 11.875C114.469 12.3958 114.625 12.9896 114.688 13.6562C114.771 14.3229 114.812 15 114.812 15.6875C114.812 16.0208 114.781 16.4167 114.719 16.875C114.677 17.3333 114.604 17.7917 114.5 18.25C114.396 18.7083 114.24 19.1354 114.031 19.5312C113.844 19.9271 113.615 20.2396 113.344 20.4688C113.031 20.7188 112.521 20.9271 111.812 21.0938C111.125 21.2604 110.375 21.3958 109.562 21.5C108.771 21.6042 108 21.6771 107.25 21.7188C106.5 21.7604 105.927 21.7812 105.531 21.7812C104.156 21.7812 102.781 21.7083 101.406 21.5625C100.031 21.3958 98.6667 21.2188 97.3125 21.0312V15.0625C98.625 15.3333 99.9375 15.4896 101.25 15.5312C102.583 15.5729 103.917 15.6458 105.25 15.75C105.521 15.7708 105.927 15.7917 106.469 15.8125C107.031 15.8125 107.594 15.8021 108.156 15.7812C108.719 15.7396 109.229 15.6667 109.688 15.5625C110.146 15.4583 110.427 15.3125 110.531 15.125C110.573 15.0625 110.594 14.9896 110.594 14.9062C110.594 14.8229 110.594 14.75 110.594 14.6875C110.594 14.5208 110.573 14.3125 110.531 14.0625C110.51 13.7917 110.448 13.5833 110.344 13.4375C110.323 13.4167 110.25 13.4062 110.125 13.4062C110 13.3854 109.927 13.375 109.906 13.375C108.74 13.3125 107.573 13.2812 106.406 13.2812C105.24 13.2604 104.062 13.1979 102.875 13.0938C102.396 13.0521 101.906 13.0104 101.406 12.9688C100.927 12.9062 100.448 12.8229 99.9688 12.7188C99.5729 12.6354 99.2083 12.5417 98.875 12.4375C98.5625 12.3333 98.2812 12.1979 98.0312 12.0312C97.8021 11.8646 97.6042 11.6562 97.4375 11.4062C97.2708 11.1354 97.1562 10.7812 97.0938 10.3438C97.0521 10.1979 97.0312 10.0625 97.0312 9.9375C97.0312 9.79167 97.0312 9.63542 97.0312 9.46875C97.0312 9.09375 97.0521 8.66667 97.0938 8.1875C97.1354 7.70833 97.2083 7.22917 97.3125 6.75C97.4375 6.27083 97.5833 5.82292 97.75 5.40625C97.9375 4.96875 98.1771 4.61458 98.4688 4.34375C98.6562 4.15625 98.9896 4 99.4688 3.875C99.9479 3.75 100.5 3.64583 101.125 3.5625C101.75 3.45833 102.417 3.375 103.125 3.3125C103.833 3.25 104.51 3.20833 105.156 3.1875C105.823 3.14583 106.417 3.125 106.938 3.125C107.479 3.10417 107.885 3.09375 108.156 3.09375C109.323 3.09375 110.469 3.11458 111.594 3.15625C112.74 3.19792 113.875 3.25 115 3.3125ZM139.031 12.8125C139.031 13.5833 138.979 14.3646 138.875 15.1562C138.792 15.9271 138.698 16.6979 138.594 17.4688C138.427 18.8229 138.24 20.1667 138.031 21.5C137.823 22.8125 137.615 24.1458 137.406 25.5C136.385 25.5208 135.385 25.5625 134.406 25.625C133.427 25.6875 132.438 25.7604 131.438 25.8438C131.438 24.3229 131.438 22.8229 131.438 21.3438C131.438 19.8438 131.406 18.3438 131.344 16.8438C131.344 16.5521 131.333 16.1771 131.312 15.7188C131.312 15.2604 131.271 14.8854 131.188 14.5938C131.062 14.1146 130.906 13.7917 130.719 13.625C130.531 13.4375 130.167 13.3438 129.625 13.3438C129.25 13.3438 128.812 13.3854 128.312 13.4688C127.812 13.5521 127.302 13.6562 126.781 13.7812C126.26 13.9062 125.76 14.0521 125.281 14.2188C124.823 14.3646 124.438 14.5208 124.125 14.6875C123.958 16.375 123.75 18.0521 123.5 19.7188C123.271 21.3854 123.125 23.0729 123.062 24.7812L118.656 24.5625C118.427 20.8125 118.208 17.0833 118 13.375C117.792 9.64583 117.594 5.90625 117.406 2.15625L124.281 1.71875C124.24 3.09375 124.198 4.46875 124.156 5.84375C124.115 7.19792 124.073 8.5625 124.031 9.9375C124.427 9.60417 124.875 9.35417 125.375 9.1875C125.875 9 126.385 8.875 126.906 8.8125C127.448 8.75 127.99 8.71875 128.531 8.71875C129.073 8.71875 129.594 8.71875 130.094 8.71875C130.844 8.71875 131.688 8.75 132.625 8.8125C133.583 8.85417 134.49 9 135.344 9.25C136.219 9.47917 136.99 9.85417 137.656 10.375C138.323 10.8958 138.771 11.625 139 12.5625C139.021 12.6042 139.031 12.6458 139.031 12.6875C139.031 12.7292 139.031 12.7708 139.031 12.8125ZM173.312 6.8125V9L167.281 9.3125C167.198 10.5208 167.135 11.7188 167.094 12.9062C167.052 14.0938 167.031 15.2812 167.031 16.4688C167.031 17.9271 166.99 19.3854 166.906 20.8438C166.844 22.2812 166.76 23.7188 166.656 25.1562C165.906 25.1979 165.156 25.2292 164.406 25.25C163.656 25.2917 162.906 25.3125 162.156 25.3125C161.885 25.3125 161.615 25.3021 161.344 25.2812C161.094 25.2812 160.844 25.2812 160.594 25.2812C160.635 24.0104 160.667 22.75 160.688 21.5C160.729 20.2292 160.75 18.9688 160.75 17.7188C160.75 16.4688 160.719 15.2188 160.656 13.9688C160.594 12.6979 160.521 11.4271 160.438 10.1562C159.833 10.1771 159.219 10.1979 158.594 10.2188C157.99 10.2396 157.375 10.25 156.75 10.25C156.396 10.25 156.042 10.25 155.688 10.25C155.354 10.25 155.01 10.2396 154.656 10.2188C154.594 8.67708 154.552 7.14583 154.531 5.625C154.51 4.10417 154.49 2.58333 154.469 1.0625C157.594 1.125 160.698 1.21875 163.781 1.34375C166.865 1.44792 169.958 1.54167 173.062 1.625C173.146 2.52083 173.208 3.39583 173.25 4.25C173.292 5.08333 173.312 5.9375 173.312 6.8125ZM194.281 11.8125V12.5312L188.25 12.8125C188.312 12.5417 188.344 12.2292 188.344 11.875C188.344 11.3542 188.271 11.0208 188.125 10.875C187.979 10.7083 187.656 10.625 187.156 10.625C186.448 10.625 185.667 10.75 184.812 11C183.958 11.25 183.208 11.4896 182.562 11.7188C182.458 12.6354 182.375 13.5521 182.312 14.4688C182.25 15.3854 182.219 16.3021 182.219 17.2188C182.219 18.2396 182.219 19.2604 182.219 20.2812C182.24 21.2812 182.26 22.2917 182.281 23.3125L176.906 23.6562C176.802 22.3229 176.698 21 176.594 19.6875C176.49 18.3542 176.396 17.0208 176.312 15.6875C176.208 13.9167 176.073 12.1562 175.906 10.4062C175.74 8.63542 175.573 6.85417 175.406 5.0625C176.594 5.14583 177.771 5.27083 178.938 5.4375C180.125 5.58333 181.312 5.77083 182.5 6L182.344 8.625C182.969 8.125 183.562 7.69792 184.125 7.34375C184.708 6.96875 185.292 6.65625 185.875 6.40625C186.479 6.15625 187.115 5.97917 187.781 5.875C188.448 5.75 189.188 5.6875 190 5.6875C190.542 5.6875 191.104 5.75 191.688 5.875C192.271 5.97917 192.771 6.23958 193.188 6.65625C193.396 6.88542 193.573 7.22917 193.719 7.6875C193.865 8.14583 193.979 8.63542 194.062 9.15625C194.146 9.65625 194.198 10.1562 194.219 10.6562C194.26 11.1354 194.281 11.5208 194.281 11.8125ZM201.344 4.09375C201.344 4.51042 201.25 4.90625 201.062 5.28125C200.896 5.63542 200.656 5.94792 200.344 6.21875C200.052 6.48958 199.719 6.70833 199.344 6.875C198.969 7.02083 198.594 7.09375 198.219 7.09375C197.802 7.09375 197.406 7 197.031 6.8125C196.677 6.625 196.365 6.38542 196.094 6.09375C195.823 5.80208 195.615 5.46875 195.469 5.09375C195.323 4.69792 195.25 4.30208 195.25 3.90625C195.25 3.51042 195.323 3.14583 195.469 2.8125C195.635 2.45833 195.844 2.15625 196.094 1.90625C196.365 1.65625 196.667 1.45833 197 1.3125C197.354 1.16667 197.729 1.09375 198.125 1.09375C198.521 1.09375 198.906 1.17708 199.281 1.34375C199.677 1.48958 200.021 1.70833 200.312 2C200.625 2.27083 200.875 2.59375 201.062 2.96875C201.25 3.32292 201.344 3.69792 201.344 4.09375ZM202.625 9.40625C202.521 10.5104 202.438 11.6042 202.375 12.6875C202.312 13.7708 202.25 14.8542 202.188 15.9375C202.104 17.2083 201.958 18.4688 201.75 19.7188C201.562 20.9688 201.344 22.2188 201.094 23.4688L196.312 23.9688C196.312 23.3021 196.312 22.6458 196.312 22C196.333 21.3542 196.344 20.6979 196.344 20.0312C196.344 18.3229 196.312 16.6146 196.25 14.9062C196.188 13.1979 196.125 11.4896 196.062 9.78125C197.167 9.73958 198.25 9.67708 199.312 9.59375C200.396 9.51042 201.5 9.44792 202.625 9.40625ZM225.375 7.375C224.604 8.8125 223.844 10.2083 223.094 11.5625C222.344 12.8958 221.573 14.2188 220.781 15.5312C220.01 16.8229 219.208 18.1146 218.375 19.4062C217.542 20.6979 216.656 22.0104 215.719 23.3438L210.281 23.5625L204.094 7.21875L211.031 7.03125C211.448 8.96875 211.844 10.9062 212.219 12.8438C212.615 14.7604 213.021 16.6979 213.438 18.6562C214.229 16.8229 214.99 15 215.719 13.1875C216.469 11.375 217.146 9.51042 217.75 7.59375C219.042 7.59375 220.312 7.58333 221.562 7.5625C222.812 7.54167 224.083 7.47917 225.375 7.375ZM247.719 13.4062C244.99 13.5521 242.271 13.6771 239.562 13.7812C236.854 13.8646 234.135 13.9583 231.406 14.0625C231.385 14.1458 231.375 14.2292 231.375 14.3125C231.375 14.3958 231.375 14.4792 231.375 14.5625C231.375 15.2708 231.531 15.8125 231.844 16.1875C232.177 16.5625 232.583 16.8333 233.062 17C233.542 17.1458 234.073 17.2292 234.656 17.25C235.24 17.2708 235.781 17.2812 236.281 17.2812C237.677 17.2812 239.073 17.2396 240.469 17.1562C241.865 17.0521 243.271 16.9479 244.688 16.8438L244.938 21.8125C243.562 21.875 242.188 21.9271 240.812 21.9688C239.458 22.0104 238.094 22.0312 236.719 22.0312C236.427 22.0312 235.885 22.0312 235.094 22.0312C234.323 22.0104 233.49 21.9792 232.594 21.9375C231.719 21.875 230.896 21.8021 230.125 21.7188C229.354 21.6354 228.844 21.5208 228.594 21.375C227.948 21 227.438 20.5208 227.062 19.9375C226.708 19.3542 226.427 18.7188 226.219 18.0312C226.031 17.3438 225.896 16.6458 225.812 15.9375C225.75 15.2083 225.708 14.5104 225.688 13.8438C225.667 13.7396 225.656 13.6354 225.656 13.5312C225.677 13.4062 225.688 13.2917 225.688 13.1875C225.688 12.0833 225.802 11.0625 226.031 10.125C226.281 9.16667 226.729 8.23958 227.375 7.34375C227.812 6.71875 228.458 6.19792 229.312 5.78125C230.167 5.36458 231.094 5.04167 232.094 4.8125C233.094 4.5625 234.094 4.39583 235.094 4.3125C236.094 4.20833 236.958 4.15625 237.688 4.15625C238.333 4.15625 239.125 4.21875 240.062 4.34375C241 4.44792 241.927 4.63542 242.844 4.90625C243.781 5.17708 244.625 5.53125 245.375 5.96875C246.125 6.38542 246.635 6.90625 246.906 7.53125C246.948 7.65625 246.99 7.875 247.031 8.1875C247.094 8.47917 247.156 8.82292 247.219 9.21875C247.281 9.59375 247.333 10 247.375 10.4375C247.438 10.875 247.49 11.2917 247.531 11.6875C247.573 12.0833 247.604 12.4375 247.625 12.75C247.667 13.0625 247.698 13.2812 247.719 13.4062ZM243.469 11.125C243.344 10.2083 243.104 9.48958 242.75 8.96875C242.417 8.42708 241.99 8.03125 241.469 7.78125C240.969 7.51042 240.385 7.34375 239.719 7.28125C239.073 7.19792 238.375 7.15625 237.625 7.15625C237.375 7.15625 237.062 7.16667 236.688 7.1875C236.312 7.1875 235.938 7.21875 235.562 7.28125C235.188 7.32292 234.833 7.39583 234.5 7.5C234.167 7.60417 233.906 7.75 233.719 7.9375C233.573 8.0625 233.448 8.23958 233.344 8.46875C233.26 8.67708 233.188 8.90625 233.125 9.15625C233.062 9.40625 233.01 9.65625 232.969 9.90625C232.948 10.1354 232.938 10.3333 232.938 10.5C232.938 10.8333 232.969 11.1562 233.031 11.4688L243.469 11.125ZM271.562 7.625C271.562 8.5 271.562 9.36458 271.562 10.2188C271.562 11.0729 271.542 11.9375 271.5 12.8125C271.458 14.7292 271.375 16.6354 271.25 18.5312C271.125 20.4062 270.99 22.2917 270.844 24.1875C268.948 24.3125 267.073 24.4167 265.219 24.5C263.365 24.5833 261.49 24.625 259.594 24.625C259.344 24.625 258.948 24.625 258.406 24.625C257.865 24.6042 257.281 24.5833 256.656 24.5625C256.052 24.5417 255.479 24.5104 254.938 24.4688C254.396 24.4062 254 24.3229 253.75 24.2188C252.146 23.6354 250.948 22.8542 250.156 21.875C249.385 20.875 249 19.5 249 17.75V17.25C249.042 16.4792 249.104 15.7917 249.188 15.1875C249.271 14.5833 249.417 14.0312 249.625 13.5312C249.854 13.0312 250.156 12.5729 250.531 12.1562C250.927 11.7188 251.458 11.2812 252.125 10.8438C252.583 10.5312 253.125 10.2708 253.75 10.0625C254.375 9.85417 255.021 9.67708 255.688 9.53125C256.375 9.38542 257.042 9.28125 257.688 9.21875C258.354 9.15625 258.958 9.125 259.5 9.125C260.5 9.125 261.49 9.19792 262.469 9.34375C263.469 9.48958 264.458 9.70833 265.438 10C265.333 8.625 265.24 7.27083 265.156 5.9375C265.094 4.58333 264.99 3.22917 264.844 1.875C265.969 1.77083 267.083 1.65625 268.188 1.53125C269.292 1.40625 270.396 1.28125 271.5 1.15625C271.521 2.23958 271.531 3.32292 271.531 4.40625C271.552 5.46875 271.562 6.54167 271.562 7.625ZM266.781 17.0625C266.781 16.5833 266.781 16.1042 266.781 15.625C266.781 15.1458 266.771 14.6667 266.75 14.1875C265.438 14.125 264.125 14.0938 262.812 14.0938C262.625 14.0938 262.229 14.1042 261.625 14.125C261.021 14.125 260.375 14.1458 259.688 14.1875C259.021 14.2083 258.396 14.2604 257.812 14.3438C257.229 14.4062 256.854 14.4896 256.688 14.5938C256.375 14.8229 256.177 15.1458 256.094 15.5625C256.031 15.9792 256 16.3646 256 16.7188C256 16.8854 256.01 17.1146 256.031 17.4062C256.052 17.6771 256.083 17.9688 256.125 18.2812C256.188 18.5729 256.26 18.8542 256.344 19.125C256.427 19.375 256.521 19.5625 256.625 19.6875C256.688 19.75 256.792 19.8021 256.938 19.8438C257.104 19.8854 257.281 19.9167 257.469 19.9375C257.656 19.9583 257.833 19.9688 258 19.9688C258.188 19.9688 258.333 19.9688 258.438 19.9688C259.625 19.9688 260.802 19.9167 261.969 19.8125C263.135 19.7083 264.312 19.5729 265.5 19.4062C265.667 19.3646 265.865 19.3438 266.094 19.3438C266.323 19.3229 266.531 19.2812 266.719 19.2188V19.1562C266.719 19.1354 266.729 19.1146 266.75 19.0938C266.792 18.7604 266.802 18.4271 266.781 18.0938C266.781 17.7604 266.781 17.4167 266.781 17.0625ZM296.344 18.8438C296.344 19.0729 296.344 19.4062 296.344 19.8438C296.344 20.2812 296.333 20.7812 296.312 21.3438C296.292 21.8854 296.26 22.4583 296.219 23.0625C296.198 23.6458 296.167 24.2083 296.125 24.75C296.083 25.2708 296.021 25.7292 295.938 26.125C295.875 26.5417 295.802 26.8333 295.719 27C295.365 27.5625 295.031 27.9896 294.719 28.2812C294.427 28.5938 294.104 28.8125 293.75 28.9375C293.396 29.0625 292.99 29.125 292.531 29.125C292.094 29.1458 291.573 29.1562 290.969 29.1562C288.969 29.1562 286.979 29.0729 285 28.9062C283.021 28.7604 281.042 28.5833 279.062 28.375V24.0938C279.25 24.0938 279.656 24.0938 280.281 24.0938C280.927 24.0729 281.677 24.0521 282.531 24.0312C283.385 24.0104 284.292 23.9792 285.25 23.9375C286.208 23.8958 287.104 23.8438 287.938 23.7812C288.771 23.7188 289.49 23.6458 290.094 23.5625C290.698 23.4792 291.073 23.375 291.219 23.25C291.406 23.1042 291.552 22.8854 291.656 22.5938C291.781 22.2812 291.865 21.9583 291.906 21.625C291.969 21.2917 292.01 20.9583 292.031 20.625C292.052 20.2917 292.062 20.0208 292.062 19.8125C292.062 19.6042 292.062 19.4062 292.062 19.2188C292.062 19.0312 292.052 18.8229 292.031 18.5938C291.719 19.3021 291.302 19.8333 290.781 20.1875C290.26 20.5417 289.677 20.7917 289.031 20.9375C288.385 21.0833 287.708 21.1667 287 21.1875C286.292 21.1875 285.615 21.1875 284.969 21.1875C283.615 21.1875 282.302 21.1354 281.031 21.0312C279.781 20.9062 278.667 20.6042 277.688 20.125C276.729 19.6458 275.948 18.9271 275.344 17.9688C274.76 16.9896 274.469 15.6458 274.469 13.9375C274.469 12.25 274.583 10.5729 274.812 8.90625C275.042 7.21875 275.333 5.55208 275.688 3.90625L282.281 3.96875C281.927 5.28125 281.615 6.61458 281.344 7.96875C281.073 9.32292 280.938 10.6875 280.938 12.0625C280.938 12.7917 280.99 13.3854 281.094 13.8438C281.198 14.3021 281.385 14.6771 281.656 14.9688C281.927 15.2396 282.302 15.4271 282.781 15.5312C283.26 15.6354 283.865 15.6875 284.594 15.6875C284.885 15.6875 285.24 15.6667 285.656 15.625C286.094 15.5833 286.531 15.5312 286.969 15.4688C287.427 15.3854 287.854 15.2812 288.25 15.1562C288.667 15.0312 288.99 14.875 289.219 14.6875C289.302 14.625 289.375 14.4167 289.438 14.0625C289.5 13.7083 289.552 13.2917 289.594 12.8125C289.635 12.3125 289.667 11.7812 289.688 11.2188C289.708 10.6562 289.719 10.125 289.719 9.625C289.74 9.125 289.75 8.69792 289.75 8.34375C289.75 7.96875 289.75 7.72917 289.75 7.625C289.75 6.91667 289.75 6.21875 289.75 5.53125C289.75 4.82292 289.729 4.11458 289.688 3.40625C290.708 3.51042 291.708 3.60417 292.688 3.6875C293.688 3.75 294.698 3.80208 295.719 3.84375C295.802 5.86458 295.885 7.86458 295.969 9.84375C296.073 11.8229 296.177 13.8229 296.281 15.8438C296.323 16.3438 296.344 16.8542 296.344 17.375C296.344 17.875 296.344 18.3646 296.344 18.8438Z" fill="#8d9db6"/>
</svg>
