<svg width="267" height="31" viewBox="0 0 267 31" fill="none" xmlns="http://www.w3.org/2000/svg">
<path d="M8.664 24.384C7.192 24.384 5.784 24.1173 4.44 23.584C3.096 23.0507 1.90133 22.2933 0.856 21.312L3.032 18.784C3.82133 19.488 4.71733 20.064 5.72 20.512C6.72267 20.9387 7.77867 21.152 8.888 21.152C10.104 21.152 11.032 20.9173 11.672 20.448C12.312 19.9573 12.632 19.3493 12.632 18.624C12.632 18.0053 12.4827 17.5147 12.184 17.152C11.8853 16.768 11.4693 16.448 10.936 16.192C10.424 15.936 9.816 15.6693 9.112 15.392L6.264 14.144C5.53867 13.8453 4.824 13.4613 4.12 12.992C3.43733 12.5227 2.872 11.9253 2.424 11.2C1.99733 10.4747 1.784 9.6 1.784 8.576C1.784 7.46667 2.09333 6.47467 2.712 5.6C3.33067 4.704 4.184 4 5.272 3.488C6.38133 2.95467 7.64 2.688 9.048 2.688C10.328 2.688 11.544 2.93333 12.696 3.424C13.8693 3.89333 14.8933 4.53333 15.768 5.344L13.848 7.712C13.144 7.136 12.3973 6.69867 11.608 6.4C10.84 6.08 9.92267 5.92 8.856 5.92C7.87467 5.92 7.07467 6.13333 6.456 6.56C5.83733 6.98667 5.528 7.59467 5.528 8.384C5.528 8.91733 5.69867 9.35467 6.04 9.696C6.38133 10.0373 6.81867 10.336 7.352 10.592C7.90667 10.848 8.49333 11.0933 9.112 11.328L11.864 12.512C12.76 12.8533 13.5493 13.2693 14.232 13.76C14.9147 14.2507 15.448 14.8587 15.832 15.584C16.216 16.288 16.408 17.152 16.408 18.176C16.408 19.3067 16.0987 20.3413 15.48 21.28C14.8613 22.2187 13.976 22.976 12.824 23.552C11.672 24.1067 10.2853 24.384 8.664 24.384ZM20.8115 30.208V8.288H23.8515L24.1395 10.08H24.2355C24.9182 9.44 25.6968 8.91733 26.5715 8.512C27.4675 8.10667 28.3635 7.904 29.2595 7.904C30.6462 7.904 31.8088 8.23467 32.7475 8.896C33.6862 9.55733 34.4115 10.4853 34.9235 11.68C35.4355 12.8747 35.6915 14.2827 35.6915 15.904C35.6915 17.696 35.3608 19.2213 34.6995 20.48C34.0382 21.7387 33.1742 22.7093 32.1075 23.392C31.0622 24.0533 29.9315 24.384 28.7155 24.384C28.0115 24.384 27.2755 24.224 26.5075 23.904C25.7608 23.584 25.0675 23.1253 24.4275 22.528H24.3315L24.5235 25.28V30.208H20.8115ZM27.9475 21.344C28.6942 21.344 29.3662 21.1413 29.9635 20.736C30.5608 20.3307 31.0302 19.7333 31.3715 18.944C31.7128 18.1333 31.8835 17.1307 31.8835 15.936C31.8835 14.8907 31.7555 13.9947 31.4995 13.248C31.2435 12.5013 30.8488 11.936 30.3155 11.552C29.8035 11.1467 29.1102 10.944 28.2355 10.944C27.6382 10.944 27.0302 11.0933 26.4115 11.392C25.7928 11.6907 25.1635 12.1707 24.5235 12.832V19.904C25.0995 20.416 25.6968 20.7893 26.3155 21.024C26.9342 21.2373 27.4782 21.344 27.9475 21.344ZM44.895 24.384C43.871 24.384 42.9643 24.192 42.175 23.808C41.3857 23.4027 40.767 22.8587 40.319 22.176C39.871 21.4933 39.647 20.6933 39.647 19.776C39.647 18.0267 40.479 16.6933 42.143 15.776C43.8283 14.8373 46.6123 14.2293 50.495 13.952C50.4523 13.376 50.2923 12.8533 50.015 12.384C49.759 11.9147 49.3643 11.552 48.831 11.296C48.2977 11.0187 47.6043 10.88 46.751 10.88C46.1537 10.88 45.567 10.9547 44.991 11.104C44.415 11.2533 43.839 11.456 43.263 11.712C42.7083 11.968 42.1537 12.2453 41.599 12.544L40.255 10.08C40.895 9.696 41.599 9.344 42.367 9.024C43.135 8.68267 43.9457 8.416 44.799 8.224C45.6523 8.01067 46.527 7.904 47.423 7.904C48.895 7.904 50.1217 8.17067 51.103 8.704C52.1057 9.216 52.863 9.984 53.375 11.008C53.9083 12.0107 54.175 13.2373 54.175 14.688V24H51.167L50.879 22.048H50.783C49.951 22.688 49.023 23.2427 47.999 23.712C46.9963 24.16 45.9617 24.384 44.895 24.384ZM46.015 21.504C46.8043 21.504 47.5617 21.3333 48.287 20.992C49.0337 20.6293 49.7697 20.16 50.495 19.584V16.256C48.6177 16.384 47.1457 16.5973 46.079 16.896C45.0123 17.1733 44.2657 17.536 43.839 17.984C43.4123 18.432 43.199 18.9333 43.199 19.488C43.199 19.9573 43.327 20.3413 43.583 20.64C43.839 20.9387 44.1697 21.1627 44.575 21.312C45.0017 21.44 45.4817 21.504 46.015 21.504ZM60.7225 24V8.288H63.7625L64.0825 11.84H64.1785C64.9678 10.56 65.9385 9.58933 67.0905 8.928C68.2638 8.24533 69.5225 7.904 70.8665 7.904C71.5065 7.904 72.0612 7.95733 72.5305 8.064C72.9998 8.17067 73.4585 8.33067 73.9065 8.544L73.1385 11.648C72.6265 11.4773 72.1678 11.36 71.7625 11.296C71.3785 11.2107 70.8878 11.168 70.2905 11.168C69.2238 11.168 68.1785 11.4773 67.1545 12.096C66.1518 12.7147 65.2452 13.792 64.4345 15.328V24H60.7225ZM85.446 24.384C83.974 24.384 82.566 24.1493 81.222 23.68C79.878 23.1893 78.7153 22.6133 77.734 21.952L79.334 19.616C80.2727 20.2347 81.286 20.7253 82.374 21.088C83.462 21.4293 84.646 21.6 85.926 21.6C87.014 21.6 87.814 21.4187 88.326 21.056C88.8593 20.672 89.126 20.224 89.126 19.712C89.126 19.456 89.062 19.2213 88.934 19.008C88.8273 18.7947 88.6247 18.6027 88.326 18.432C88.0273 18.24 87.59 18.0587 87.014 17.888C86.438 17.7173 85.6913 17.536 84.774 17.344C82.6833 16.896 81.1473 16.288 80.166 15.52C79.1847 14.752 78.694 13.7813 78.694 12.608C78.694 11.2213 79.2913 10.0907 80.486 9.216C81.702 8.34133 83.4087 7.904 85.606 7.904C86.9073 7.904 88.1233 8.11733 89.254 8.544C90.406 8.97067 91.3767 9.45067 92.166 9.984L90.47 12.256C89.7233 11.744 88.902 11.36 88.006 11.104C87.11 10.8267 86.2033 10.688 85.286 10.688C84.582 10.688 84.0167 10.7627 83.59 10.912C83.1847 11.0613 82.8753 11.2747 82.662 11.552C82.47 11.808 82.374 12.096 82.374 12.416C82.374 12.9707 82.694 13.3867 83.334 13.664C83.974 13.9413 85.0193 14.24 86.47 14.56C88.1553 14.9227 89.4567 15.3387 90.374 15.808C91.2913 16.256 91.9207 16.7787 92.262 17.376C92.6247 17.952 92.806 18.6667 92.806 19.52C92.806 20.416 92.518 21.2373 91.942 21.984C91.3873 22.7093 90.566 23.296 89.478 23.744C88.39 24.1707 87.046 24.384 85.446 24.384ZM97.5615 24V1.408H101.274V7.232L101.05 10.592H101.146C101.828 9.86667 102.618 9.23733 103.514 8.704C104.431 8.17067 105.487 7.904 106.682 7.904C108.495 7.904 109.828 8.45867 110.682 9.568C111.535 10.6773 111.962 12.2453 111.962 14.272V24H108.25V14.752C108.25 13.4933 108.026 12.5653 107.578 11.968C107.13 11.3707 106.372 11.072 105.306 11.072C104.538 11.072 103.855 11.2533 103.258 11.616C102.66 11.9787 101.999 12.5333 101.274 13.28V24H97.5615ZM141.057 24V6.176H134.465V3.072H151.361V6.176H144.769V24H141.057ZM156.66 24V8.288H159.7L160.02 11.84H160.116C160.905 10.56 161.876 9.58933 163.028 8.928C164.201 8.24533 165.46 7.904 166.804 7.904C167.444 7.904 167.999 7.95733 168.468 8.064C168.937 8.17067 169.396 8.33067 169.844 8.544L169.076 11.648C168.564 11.4773 168.105 11.36 167.7 11.296C167.316 11.2107 166.825 11.168 166.228 11.168C165.161 11.168 164.116 11.4773 163.092 12.096C162.089 12.7147 161.183 13.792 160.372 15.328V24H156.66ZM181.192 24V11.2H174.376V8.288H184.872V24H181.192ZM182.76 5.408C182.013 5.408 181.384 5.184 180.872 4.736C180.381 4.288 180.135 3.69067 180.135 2.944C180.135 2.19733 180.381 1.6 180.872 1.152C181.384 0.682665 182.013 0.447998 182.76 0.447998C183.528 0.447998 184.157 0.682665 184.648 1.152C185.138 1.6 185.384 2.19733 185.384 2.944C185.384 3.69067 185.138 4.288 184.648 4.736C184.157 5.184 183.528 5.408 182.76 5.408ZM198.459 24L192.187 8.288H195.899L198.939 16.448C199.216 17.216 199.483 17.9947 199.739 18.784C200.016 19.5733 200.272 20.3733 200.507 21.184H200.635C200.891 20.3733 201.147 19.5733 201.403 18.784C201.659 17.9947 201.926 17.216 202.203 16.448L205.243 8.288H208.763L202.651 24H198.459ZM220.623 24.384C219.023 24.384 217.572 24.064 216.271 23.424C214.969 22.7627 213.935 21.824 213.167 20.608C212.399 19.3707 212.015 17.8773 212.015 16.128C212.015 14.4213 212.399 12.96 213.167 11.744C213.935 10.5067 214.937 9.55733 216.175 8.896C217.412 8.23467 218.735 7.904 220.143 7.904C221.7 7.904 223.012 8.224 224.079 8.864C225.167 9.504 225.988 10.3893 226.543 11.52C227.119 12.6293 227.407 13.9093 227.407 15.36C227.407 15.7227 227.385 16.0747 227.343 16.416C227.321 16.736 227.289 17.0027 227.247 17.216H214.671V14.592H224.879L224.175 15.424C224.175 13.8667 223.823 12.704 223.119 11.936C222.436 11.1467 221.476 10.752 220.239 10.752C219.364 10.752 218.575 10.9547 217.871 11.36C217.188 11.7653 216.644 12.3733 216.239 13.184C215.833 13.9733 215.631 14.9547 215.631 16.128C215.631 17.344 215.855 18.3467 216.303 19.136C216.772 19.9253 217.412 20.5227 218.223 20.928C219.055 21.3333 220.015 21.536 221.103 21.536C221.935 21.536 222.703 21.4187 223.407 21.184C224.111 20.9493 224.815 20.6293 225.519 20.224L226.767 22.528C225.935 23.0613 224.996 23.5093 223.951 23.872C222.905 24.2133 221.796 24.384 220.623 24.384ZM237.666 24.384C235.661 24.384 234.039 23.6587 232.802 22.208C231.565 20.7573 230.946 18.7413 230.946 16.16C230.946 14.4533 231.277 12.9813 231.938 11.744C232.599 10.5067 233.463 9.55733 234.53 8.896C235.597 8.23467 236.717 7.904 237.89 7.904C238.786 7.904 239.575 8.064 240.258 8.384C240.962 8.704 241.613 9.16267 242.21 9.76H242.306L242.114 7.104V1.408H245.826V24H242.786L242.498 22.176H242.402C241.805 22.7733 241.09 23.296 240.258 23.744C239.426 24.1707 238.562 24.384 237.666 24.384ZM238.562 21.344C239.202 21.344 239.821 21.1947 240.418 20.896C241.015 20.576 241.581 20.096 242.114 19.456V12.384C241.559 11.8507 241.005 11.4773 240.45 11.264C239.895 11.0507 239.33 10.944 238.754 10.944C238.029 10.944 237.357 11.1467 236.738 11.552C236.141 11.9573 235.661 12.544 235.298 13.312C234.935 14.08 234.754 15.0187 234.754 16.128C234.754 17.8133 235.085 19.104 235.746 20C236.429 20.896 237.367 21.344 238.562 21.344ZM252.822 30.464C252.416 30.464 252.011 30.432 251.606 30.368C251.222 30.304 250.88 30.2293 250.582 30.144L251.286 27.264C251.499 27.328 251.712 27.3813 251.926 27.424C252.16 27.4667 252.384 27.488 252.598 27.488C253.6 27.488 254.4 27.232 254.998 26.72C255.595 26.208 256.054 25.568 256.374 24.8L256.758 23.808L249.718 8.288H253.398L256.63 16C256.907 16.704 257.195 17.4507 257.494 18.24C257.792 19.0293 258.08 19.8187 258.358 20.608H258.486C258.742 19.8613 258.998 19.0933 259.254 18.304C259.531 17.4933 259.798 16.7253 260.054 16L262.902 8.288H266.39L259.83 24.704C259.403 25.8773 258.88 26.8907 258.262 27.744C257.643 28.6187 256.896 29.2907 256.022 29.76C255.147 30.2293 254.08 30.464 252.822 30.464Z" fill="#8D9DB6"/>
</svg>
